<svg id="Layer_1" enable-background="new 0 0 512 512" height="512" viewBox="0 0 512 512" width="512" xmlns="http://www.w3.org/2000/svg"><g><path d="m32.008 471.199c-.441 22.436 18.344 40.801 40.784 40.801h391.208c8.837 0 16-7.163 16-16v-59c0-2.761-2.239-5-5-5h-403c-21.795 0-39.565 17.471-39.992 39.199z"/><path d="m96 395.04v-390.08c0-2.739-2.221-4.96-4.96-4.96h-3.04c-30.928 0-56 25.072-56 56v347.445c0 3.737 3.953 6.082 7.28 4.38 10.006-5.118 21.152-7.825 32.72-7.825h19.04c2.739 0 4.96-2.221 4.96-4.96z"/><path d="m464 0h-331.04c-2.739 0-4.96 2.221-4.96 4.96v390.08c0 2.739 2.221 4.96 4.96 4.96h342.04c2.761 0 5-2.239 5-5v-379c0-8.837-7.163-16-16-16zm-176 120h-61.69c3.03 10.47 8.78 19.73 15.39 27.6 3.8-3.82 7-7.71 9.16-11.51 4.37-7.68 14.14-10.37 21.82-6s10.36 14.14 6 21.82c-3.41 5.99-8.05 11.76-13.28 17.17 7.8 5.54 13.62 8.54 13.79 8.63 7.87 3.98 11.05 13.59 7.09 21.47-3.963 7.884-13.553 11.073-21.44 7.13-1.12-.57-11.81-6.02-24.67-16.1-12.52 8.84-23.39 14.71-25.69 15.93-7.814 4.137-17.494 1.146-21.62-6.66-4.13-7.81-1.15-17.49 6.66-21.62 3.86-2.05 10.15-5.71 17.11-10.33-10.64-12.81-19.78-28.71-23.19-47.53h-1.44c-8.84 0-16-7.16-16-16s7.16-16 16-16h32v-8c0-8.84 7.16-16 16-16s16 7.16 16 16v8h32c8.84 0 16 7.16 16 16s-7.16 16-16 16zm133.06 151.18c-8.287 2.763-17.411-1.658-20.24-10.12l-4.35-13.06h-40.94l-4.35 13.06c-2.8 8.38-11.86 12.92-20.24 10.12s-12.91-11.86-10.12-20.24c18.165-54.497 7.313-21.928 29.47-88.41 3.7-11.08 14.03-18.53 25.71-18.53s22.01 7.45 25.71 18.53c18.146 54.447 12.497 37.49 29.47 88.41 2.79 8.38-1.74 17.44-10.12 20.24z"/><path d="m366.2 216h19.6l-9.8-29.4z"/></g></svg>